<?xml version="1.0" standalone="no"?>
<!DOCTYPE svg PUBLIC "-//W3C//DTD SVG 20010904//EN"
 "http://www.w3.org/TR/2001/REC-SVG-20010904/DTD/svg10.dtd">
<svg version="1.0" xmlns="http://www.w3.org/2000/svg"
 width="800.000000pt" height="500.000000pt" viewBox="0 0 800.000000 500.000000"
 preserveAspectRatio="xMidYMid meet">
<metadata>
Created by potrace 1.16, written by Peter Selinger 2001-2019
</metadata>
<g transform="translate(0.000000,500.000000) scale(0.100000,-0.100000)"
fill="#000000" stroke="none">
<path d="M3769 4990 c-763 -74 -1450 -492 -1868 -1135 -366 -563 -485 -1228
-340 -1903 33 -156 115 -385 194 -547 323 -664 913 -1142 1632 -1326 218 -55
366 -73 623 -73 284 0 487 30 742 110 537 171 1009 527 1328 1003 298 446 449
1001 411 1521 -28 381 -113 693 -276 1007 -119 230 -244 402 -434 597 -390
399 -893 655 -1439 732 -128 18 -453 26 -573 14z m521 -51 c421 -45 869 -229
1219 -503 518 -403 857 -1011 932 -1666 17 -149 15 -452 -4 -585 -63 -448
-246 -876 -521 -1220 -77 -95 -252 -271 -361 -363 -460 -386 -1123 -600 -1710
-553 -368 29 -602 92 -920 246 -256 123 -461 270 -665 474 -376 378 -609 841
-692 1376 -29 189 -31 536 -5 703 146 915 742 1647 1598 1962 350 129 727 172
1129 129z"/>
<path d="M3285 4811 c-100 -26 -197 -113 -273 -245 -136 -235 -150 -618 -32
-864 31 -65 57 -101 108 -151 60 -59 79 -71 167 -105 87 -33 110 -38 180 -37
204 2 405 116 479 271 94 199 2 563 -227 905 -56 83 -145 168 -210 199 -58 29
-141 41 -192 27z m150 -84 c25 -13 25 -13 -22 -13 -72 -1 -122 -22 -181 -78
-95 -90 -165 -211 -204 -354 -17 -61 -21 -108 -22 -227 -1 -82 2 -172 7 -200
14 -91 -12 -23 -29 76 -21 124 -14 312 16 419 55 193 163 344 277 386 43 16
119 12 158 -9z"/>
<path d="M4465 4803 c-118 -49 -219 -156 -328 -346 -104 -180 -149 -310 -162
-463 -17 -204 66 -373 230 -470 134 -78 351 -131 459 -111 164 29 281 166 338
392 33 133 31 342 -5 478 -65 246 -184 435 -317 502 -69 35 -157 43 -215 18z
m147 -63 c54 -15 53 -25 -3 -27 -115 -3 -241 -111 -356 -304 -128 -216 -175
-357 -177 -527 -1 -105 -2 -111 -15 -80 -22 56 -25 174 -6 268 24 118 55 195
137 343 108 193 194 286 295 323 46 16 77 17 125 4z"/>
<path d="M2488 3821 c-103 -34 -179 -139 -209 -290 -18 -91 -7 -288 21 -376
40 -128 107 -242 190 -326 64 -64 89 -81 165 -115 80 -35 99 -39 170 -39 69 0
89 5 145 32 145 71 248 204 258 332 7 101 -35 242 -109 368 -39 65 -204 236
-296 306 -118 90 -255 134 -335 108z m138 -78 l49 -18 -67 -6 c-106 -9 -157
-54 -209 -184 -21 -54 -24 -75 -24 -219 0 -148 -1 -155 -14 -115 -7 24 -15 94
-18 156 -9 195 40 332 137 381 53 27 81 28 146 5z"/>
<path d="M5257 3807 c-89 -31 -190 -102 -309 -216 -169 -161 -241 -296 -241
-451 -1 -64 5 -98 20 -138 48 -121 158 -221 312 -286 85 -36 105 -40 176 -41
67 0 88 5 130 27 149 79 267 265 310 489 25 136 16 231 -40 400 -66 197 -192
274 -358 216z m184 -70 c23 -17 23 -17 -24 -17 -84 0 -187 -54 -323 -169 -189
-160 -306 -360 -292 -501 5 -57 -10 -34 -24 34 -22 110 29 253 132 370 63 72
192 188 258 232 106 71 215 91 273 51z"/>
<path d="M3843 3445 c-214 -68 -500 -351 -788 -780 -101 -151 -179 -298 -216
-410 -20 -59 -24 -90 -24 -200 0 -126 1 -132 32 -198 94 -199 362 -330 723
-354 47 -3 128 0 180 7 170 21 298 23 464 6 219 -22 329 -21 429 5 187 48 319
143 384 278 34 69 38 85 41 178 8 196 -51 365 -247 708 -180 315 -460 613
-678 724 -92 46 -218 61 -300 36z m137 -65 c0 -5 -10 -10 -22 -10 -42 -1 -123
-35 -193 -82 -298 -199 -756 -815 -835 -1123 -21 -81 -28 -193 -16 -255 l7
-35 -15 26 c-24 42 -35 135 -24 216 22 178 133 392 356 687 237 313 458 518
612 567 61 20 130 24 130 9z m-100 -292 c0 -10 -13 -19 -36 -25 -65 -15 -64
-21 13 -245 l70 -205 -38 -44 -38 -44 -11 30 c-6 17 -45 122 -85 235 -91 256
-91 256 -129 271 -39 16 -37 14 -31 30 4 11 35 14 145 14 123 0 140 -2 140
-17z m458 1 c2 -9 -11 -21 -30 -30 -35 -15 -31 -5 -132 -271 -36 -93 -39 -98
-72 -104 -19 -3 -36 -5 -38 -3 -2 2 24 80 57 172 67 187 68 196 2 209 -46 10
-47 11 -40 29 8 22 249 19 253 -2z m-228 -466 c0 -5 -23 -70 -52 -145 l-52
-138 -48 0 -48 0 0 35 c0 35 25 123 40 138 4 5 15 -11 23 -35 9 -25 16 -35 16
-22 1 11 11 48 22 83 18 52 27 65 53 77 36 15 46 17 46 7z"/>
<path d="M3015 724 c-68 -35 -98 -84 -98 -159 0 -28 8 -65 17 -83 18 -35 98
-92 128 -92 10 0 28 -16 40 -35 25 -38 35 -42 63 -21 17 12 18 17 6 39 -13 24
-12 28 19 53 41 35 60 80 60 142 0 120 -133 209 -235 156z m120 -28 c45 -45
57 -166 24 -238 -16 -35 -20 -35 -42 3 -16 30 -19 30 -40 16 -15 -10 -21 -24
-20 -42 l2 -28 -25 24 c-57 54 -55 204 4 272 22 25 68 21 97 -7z"/>
<path d="M3290 610 c0 -150 10 -183 65 -206 60 -25 155 -12 189 25 23 25 30
101 20 217 l-9 99 -5 -143 c-5 -142 -5 -144 -33 -168 -15 -13 -39 -24 -53 -24
-33 0 -79 25 -90 47 -5 10 -11 77 -14 148 l-5 130 -32 3 -33 3 0 -131z"/>
<path d="M3617 733 c-4 -3 -7 -82 -7 -175 l0 -168 110 0 c67 0 110 4 110 10 0
6 -32 10 -75 10 l-75 0 0 75 c0 75 3 80 39 75 7 -1 25 2 40 6 23 7 19 9 -24
14 l-50 5 0 70 0 70 75 6 c74 5 74 5 -31 7 -58 1 -109 -1 -112 -5z"/>
<path d="M3860 730 c0 -5 33 -10 74 -12 l73 -3 -78 -145 c-43 -80 -78 -153
-78 -162 -1 -16 11 -18 118 -18 69 0 122 4 126 10 4 6 -21 10 -69 10 -41 0
-78 5 -81 10 -4 6 28 76 69 157 42 80 76 150 76 154 0 5 -52 9 -115 9 -67 0
-115 -4 -115 -10z"/>
<path d="M4200 638 c-17 -57 -40 -130 -51 -162 -21 -67 -23 -86 -10 -86 5 0
17 25 26 55 l16 55 72 0 73 0 18 -55 c16 -53 18 -55 52 -55 18 0 34 5 34 10 0
9 -28 84 -109 290 -16 41 -21 45 -54 48 l-36 3 -31 -103z"/>
<path d="M4470 564 l0 -176 90 4 c80 4 95 7 132 34 35 24 46 39 57 81 16 60 9
125 -18 169 -29 47 -75 64 -175 64 l-86 0 0 -176z m174 147 c46 -50 59 -167
27 -236 -23 -52 -40 -65 -87 -68 l-39 -2 -3 150 c-1 82 0 155 2 162 8 21 80
16 100 -6z"/>
<path d="M4875 678 c-9 -35 -33 -112 -51 -171 -39 -124 -38 -120 -22 -115 6 2
19 26 28 54 l17 49 73 0 73 0 17 -50 c16 -47 19 -50 55 -53 28 -3 36 0 32 10
-24 62 -79 207 -102 266 -27 72 -27 72 -65 72 l-37 0 -18 -62z"/>
</g>
</svg>
