<?xml version="1.0" standalone="no"?>
<!DOCTYPE svg PUBLIC "-//W3C//DTD SVG 20010904//EN"
 "http://www.w3.org/TR/2001/REC-SVG-20010904/DTD/svg10.dtd">
<svg version="1.0" xmlns="http://www.w3.org/2000/svg"
 width="803.000000pt" height="504.000000pt" viewBox="0 0 803.000000 504.000000"
 preserveAspectRatio="xMidYMid meet">
<metadata>
Created by potrace 1.16, written by Peter Selinger 2001-2019
</metadata>
<g transform="translate(0.000000,504.000000) scale(0.100000,-0.100000)"
fill="#000000" stroke="none">
<path d="M3835 5014 c-512 -42 -1005 -238 -1400 -559 -121 -98 -323 -307 -416
-430 -454 -604 -612 -1355 -439 -2080 175 -732 665 -1345 1335 -1670 489 -237
993 -307 1544 -214 500 84 993 350 1359 734 362 379 586 840 669 1382 20 132
23 492 4 633 -62 464 -228 871 -505 1235 -83 110 -291 321 -408 415 -118 96
-290 209 -420 278 -230 121 -548 223 -808 256 -123 17 -418 28 -515 20z m495
-60 c588 -71 1168 -387 1557 -849 821 -975 764 -2412 -132 -3311 -200 -200
-370 -327 -617 -457 -355 -187 -802 -290 -1193 -274 -405 17 -698 92 -1046
268 -233 118 -432 261 -615 444 -204 203 -352 410 -479 670 -171 349 -247 682
-248 1090 -1 291 29 476 124 760 146 441 430 848 791 1136 533 426 1171 605
1858 523z"/>
<path d="M3305 4831 c-151 -39 -289 -211 -355 -442 -33 -113 -39 -360 -12
-491 29 -141 78 -236 166 -324 58 -57 86 -76 151 -103 151 -63 312 -53 475 29
139 70 225 196 236 345 12 155 -42 363 -146 561 -112 216 -203 330 -313 393
-58 33 -145 47 -202 32z m117 -71 c53 -15 53 -25 0 -26 -67 -1 -129 -32 -192
-98 -90 -92 -146 -198 -188 -351 -17 -64 -24 -326 -10 -415 l7 -45 -14 32
c-43 95 -45 383 -5 523 29 100 89 214 151 283 83 93 159 122 251 97z"/>
<path d="M4505 4826 c-130 -42 -230 -144 -358 -366 -99 -171 -143 -304 -154
-457 -18 -276 108 -436 428 -544 76 -26 111 -32 184 -32 78 -1 98 3 152 27 34
15 72 39 84 52 36 38 44 28 11 -13 -45 -57 -98 -161 -117 -227 -27 -92 -17
-204 24 -284 59 -116 171 -205 335 -267 79 -30 174 -33 238 -8 180 69 332 328
345 585 12 212 -71 445 -181 513 -44 26 -58 30 -125 30 -65 0 -86 -5 -144 -32
-76 -36 -161 -98 -259 -190 -75 -70 -91 -79 -54 -30 94 124 148 360 126 559
-41 374 -232 670 -445 692 -29 3 -67 0 -90 -8z m150 -79 c17 -10 12 -12 -36
-18 -140 -15 -258 -133 -402 -399 -25 -47 -62 -134 -83 -195 -30 -90 -38 -130
-43 -225 l-7 -115 -12 53 c-25 109 -10 248 43 388 33 88 134 270 197 355 105
145 247 209 343 156z m796 -997 l24 -19 -46 -1 c-89 0 -186 -51 -326 -170
-167 -143 -270 -305 -282 -447 -7 -75 -8 -77 -20 -48 -8 19 -11 59 -9 112 4
71 10 93 41 155 59 116 205 270 346 365 108 72 223 95 272 53z"/>
<path d="M2486 3835 c-144 -51 -234 -301 -196 -545 37 -232 172 -449 330 -530
107 -55 172 -72 240 -66 126 13 265 108 340 232 34 57 35 61 35 164 -1 85 -5
117 -24 170 -58 159 -142 277 -291 408 -181 158 -315 210 -434 167z m160 -72
l49 -18 -71 -5 c-112 -9 -171 -68 -217 -215 -23 -74 -30 -248 -14 -310 6 -21
5 -27 -2 -20 -6 6 -18 46 -27 90 -29 139 -3 315 58 407 57 84 125 105 224 71z"/>
<path d="M3840 3457 c-191 -64 -424 -286 -701 -667 -225 -311 -319 -520 -319
-714 0 -113 17 -174 71 -255 97 -146 288 -241 574 -286 114 -18 293 -16 395 5
68 14 202 12 354 -5 211 -23 345 -22 446 5 216 57 357 177 405 344 27 93 17
253 -24 378 -69 212 -249 536 -414 748 -180 230 -417 417 -577 454 -86 21
-132 19 -210 -7z m154 -55 c3 -5 -21 -14 -53 -20 -102 -21 -218 -102 -383
-269 -127 -128 -267 -300 -383 -473 -200 -298 -261 -453 -253 -643 4 -95 3
-99 -11 -66 -20 48 -26 178 -11 251 26 137 126 334 266 529 215 298 457 551
618 644 74 43 195 70 210 47z m-96 -293 c2 -10 -13 -19 -43 -27 -25 -7 -48
-18 -51 -25 -2 -7 27 -107 66 -221 l70 -209 -33 -38 c-17 -20 -35 -38 -38 -38
-9 -1 -8 -4 -94 239 -98 278 -99 279 -135 291 -26 10 -38 27 -26 40 2 2 67 3
143 3 111 -1 139 -4 141 -15z m450 -2 c2 -9 -9 -21 -25 -29 -33 -16 -44 -37
-114 -223 -29 -77 -58 -143 -63 -147 -14 -10 -66 -10 -66 0 0 4 27 81 59 172
55 152 58 166 44 183 -9 9 -24 17 -34 17 -29 0 -49 11 -49 29 0 14 15 16 122
15 102 -1 124 -4 126 -17z m-228 -474 c0 -5 -22 -66 -49 -138 l-50 -130 -48 0
c-46 0 -48 1 -51 31 -2 17 7 57 19 90 l22 59 18 -40 c10 -22 19 -33 19 -25 0
33 52 149 68 153 29 8 52 7 52 0z"/>
<path d="M2918 1352 c-10 -2 -18 -11 -19 -20 0 -9 -2 -88 -4 -174 l-3 -158
114 0 c69 0 114 4 114 10 0 6 -32 10 -75 10 l-75 0 0 75 0 75 44 0 c61 0 68
18 9 22 l-48 3 0 70 0 70 75 5 75 5 -80 7 c-80 7 -95 7 -127 0z"/>
<path d="M2580 1340 c0 -6 9 -28 20 -49 10 -21 38 -85 60 -142 47 -117 68
-155 80 -143 8 9 120 324 120 337 0 4 -6 7 -14 7 -9 0 -28 -40 -51 -106 -23
-63 -42 -101 -47 -96 -5 5 -27 51 -48 103 l-39 94 -40 3 c-25 2 -41 -1 -41 -8z"/>
<path d="M3136 1341 c5 -5 27 -11 49 -13 l40 -3 1 -150 c1 -82 2 -156 3 -163
1 -9 12 -12 34 -10 l32 3 3 163 2 162 45 0 c24 0 47 5 50 10 4 6 -42 10 -131
10 -86 0 -134 -4 -128 -9z"/>
<path d="M3429 1190 c-1 -88 -2 -166 -3 -172 -1 -10 29 -14 112 -16 72 -2 112
1 112 8 0 6 -30 10 -75 10 l-76 0 3 73 3 72 40 3 c59 5 69 22 12 22 -54 0 -60
11 -55 96 l3 49 75 6 c71 5 69 5 -37 7 l-113 2 -1 -160z"/>
<path d="M3680 1175 l0 -175 35 0 35 0 0 75 c0 58 3 75 14 75 8 0 36 -34 62
-75 44 -69 50 -75 81 -75 18 0 33 5 33 11 0 7 -18 40 -40 75 -45 71 -49 90
-21 99 27 8 55 67 47 99 -11 46 -59 66 -158 66 l-88 0 0 -175z"/>
<path d="M3987 1344 c-4 -4 -7 -83 -7 -176 l0 -168 35 0 c44 0 44 1 42 195
l-2 150 -30 3 c-17 2 -34 0 -38 -4z"/>
<path d="M4100 1175 c0 -149 2 -175 15 -175 13 0 15 21 15 130 0 78 4 130 10
130 5 0 51 -59 102 -130 50 -72 97 -129 102 -127 15 5 15 337 1 337 -6 0 -11
-38 -13 -90 -1 -49 -6 -90 -10 -90 -4 1 -24 24 -44 53 -70 97 -113 137 -147
137 l-31 0 0 -175z"/>
<path d="M4490 1328 c-5 -13 -27 -84 -49 -159 -23 -75 -43 -144 -47 -153 -4
-11 -1 -16 10 -16 10 0 19 15 27 43 16 62 24 67 94 67 68 0 72 -4 91 -82 5
-25 11 -28 45 -28 21 0 39 2 39 5 0 6 -106 285 -121 318 -16 36 -74 39 -89 5z"/>
<path d="M4737 1343 c-4 -3 -7 -82 -7 -175 l0 -168 35 0 35 0 0 59 c0 62 6 91
20 91 5 0 30 -34 56 -75 46 -72 49 -75 86 -75 44 0 45 -1 -18 98 -19 29 -34
55 -34 58 0 3 16 20 35 38 52 49 47 96 -15 139 -18 13 -45 17 -106 17 -44 0
-84 -3 -87 -7z"/>
<path d="M5036 1335 c-3 -9 -6 -86 -6 -170 0 -137 2 -155 18 -163 10 -6 27 -6
40 -1 22 8 22 10 20 176 l-3 168 -31 3 c-22 2 -33 -2 -38 -13z"/>
<path d="M5240 1328 c-5 -13 -27 -84 -49 -158 -22 -74 -43 -143 -46 -152 -5
-13 -2 -18 8 -18 10 0 21 17 29 48 l14 47 63 9 c73 9 79 6 102 -62 13 -39 20
-48 44 -50 48 -6 49 9 2 129 -24 63 -51 135 -61 162 -10 26 -26 52 -36 57 -31
17 -60 12 -70 -12z"/>
<path d="M3025 746 c-90 -39 -126 -155 -78 -249 15 -30 96 -87 124 -87 9 0 27
-16 40 -35 27 -39 35 -42 60 -19 14 13 16 20 7 40 -10 21 -7 28 25 59 137 133
-6 366 -178 291z m120 -30 c47 -47 58 -184 19 -243 l-16 -26 -17 26 c-8 15
-23 27 -32 27 -24 0 -42 -26 -34 -50 6 -20 5 -21 -15 -10 -28 15 -50 68 -50
119 0 64 20 140 43 161 28 27 73 25 102 -4z"/>
<path d="M3300 621 c0 -139 0 -141 28 -171 22 -26 37 -32 82 -36 69 -7 130 12
147 46 15 29 18 290 4 290 -5 0 -9 -59 -8 -136 l1 -136 -27 -24 c-37 -32 -87
-32 -124 0 -28 24 -28 26 -33 163 l-5 138 -32 3 -33 3 0 -140z"/>
<path d="M3620 585 l0 -175 105 0 c63 0 105 4 105 10 0 6 -30 10 -70 10 l-70
0 0 75 0 75 39 0 c22 0 43 5 46 10 4 6 -12 10 -39 10 l-46 0 0 75 0 74 78 4
c64 2 58 3 -35 5 l-113 2 0 -175z"/>
<path d="M3865 750 c-4 -6 22 -10 69 -10 42 0 76 -4 76 -8 0 -4 -34 -72 -75
-150 -41 -78 -75 -149 -75 -157 0 -12 20 -15 120 -15 73 0 120 4 120 10 0 6
-32 10 -75 10 -44 0 -75 4 -75 10 0 6 34 77 74 159 41 82 72 151 69 155 -11
10 -221 7 -228 -4z"/>
<path d="M4232 733 c-33 -90 -97 -323 -88 -320 6 2 18 26 28 53 l16 49 74 0
73 0 17 -50 c15 -47 18 -50 50 -50 39 0 39 9 3 95 -13 30 -36 89 -50 130 -37
103 -50 120 -84 120 -22 0 -31 -6 -39 -27z"/>
<path d="M4488 754 c-5 -4 -8 -84 -8 -177 l0 -169 88 4 c101 5 145 24 176 77
25 44 27 143 3 188 -30 57 -70 77 -166 81 -47 2 -89 1 -93 -4z m147 -10 c9 -4
26 -25 38 -48 42 -81 19 -248 -38 -270 -31 -11 -83 -6 -89 9 -5 15 3 280 10
303 4 13 51 16 79 6z"/>
<path d="M4913 752 c-7 -5 -31 -69 -54 -143 -22 -73 -45 -147 -50 -163 -8 -27
-5 -46 5 -35 3 2 13 27 23 54 l19 50 63 3 c34 2 69 -2 76 -8 7 -6 18 -31 25
-55 12 -42 15 -45 46 -45 19 0 34 5 34 10 0 6 -15 50 -34 98 -18 48 -45 119
-60 158 -20 53 -33 73 -49 78 -28 7 -30 7 -44 -2z"/>
</g>
</svg>
